<?xml version="1.0" encoding="UTF-8" standalone="no"?>
<!-- Created with Inkscape (http://www.inkscape.org/) -->

<svg
   xmlns:dc="http://purl.org/dc/elements/1.1/"
   xmlns:cc="http://creativecommons.org/ns#"
   xmlns:rdf="http://www.w3.org/1999/02/22-rdf-syntax-ns#"
   xmlns:svg="http://www.w3.org/2000/svg"
   xmlns="http://www.w3.org/2000/svg"
   xmlns:xlink="http://www.w3.org/1999/xlink"
   xmlns:sodipodi="http://sodipodi.sourceforge.net/DTD/sodipodi-0.dtd"
   xmlns:inkscape="http://www.inkscape.org/namespaces/inkscape"
   width="48"
   height="48"
   viewBox="0 0 48 48.000001"
   id="svg2"
   version="1.1"
   inkscape:version="0.91 r13725"
   sodipodi:docname="artemanufrij.regextester.svg">
  <defs
     id="defs4">
    <linearGradient
       inkscape:collect="always"
       id="linearGradient4354">
      <stop
         style="stop-color:#000000;stop-opacity:0"
         offset="0"
         id="stop4356" />
      <stop
         style="stop-color:#000000;stop-opacity:0.1"
         offset="1"
         id="stop4358" />
    </linearGradient>
    <linearGradient
       id="linearGradient4199"
       inkscape:collect="always">
      <stop
         id="stop4201"
         offset="0"
         style="stop-color:#000000;stop-opacity:0.6" />
      <stop
         id="stop4203"
         offset="1"
         style="stop-color:#000000;stop-opacity:0" />
    </linearGradient>
    <linearGradient
       id="linearGradient4193"
       inkscape:collect="always">
      <stop
         id="stop4195"
         offset="0"
         style="stop-color:#000000;stop-opacity:0.6" />
      <stop
         id="stop4197"
         offset="1"
         style="stop-color:#000000;stop-opacity:0" />
    </linearGradient>
    <linearGradient
       id="linearGradient4152"
       inkscape:collect="always">
      <stop
         id="stop4154"
         offset="0"
         style="stop-color:#ffffff;stop-opacity:0.30000001" />
      <stop
         offset="0.2"
         id="stop4202"
         style="stop-color:#ffffff;stop-opacity:0.05" />
      <stop
         id="stop4204"
         offset="0.80000001"
         style="stop-color:#ffffff;stop-opacity:0.05" />
      <stop
         id="stop4156"
         offset="1"
         style="stop-color:#ffffff;stop-opacity:0.1" />
    </linearGradient>
    <linearGradient
       inkscape:collect="always"
       xlink:href="#linearGradient4152"
       id="linearGradient4150"
       gradientUnits="userSpaceOnUse"
       x1="24"
       y1="1009"
       x2="24"
       y2="1047"
       gradientTransform="matrix(0.94999996,0,0,0.95000002,1.2250002,52.917947)" />
    <filter
       style="color-interpolation-filters:sRGB;"
       inkscape:label="Drop Shadow"
       id="filter4268">
      <feFlood
         flood-opacity="0.498039"
         flood-color="rgb(0,0,0)"
         result="flood"
         id="feFlood4270" />
      <feComposite
         in="flood"
         in2="SourceGraphic"
         operator="in"
         result="composite1"
         id="feComposite4272" />
      <feGaussianBlur
         in="composite1"
         stdDeviation="1"
         result="blur"
         id="feGaussianBlur4274" />
      <feOffset
         dx="1.38778e-16"
         dy="1"
         result="offset"
         id="feOffset4276" />
      <feComposite
         in="SourceGraphic"
         in2="offset"
         operator="over"
         result="composite2"
         id="feComposite4278" />
    </filter>
    <radialGradient
       inkscape:collect="always"
       xlink:href="#linearGradient4199"
       id="radialGradient4245"
       cx="40"
       cy="44"
       fx="40"
       fy="44"
       r="2.5"
       gradientTransform="matrix(2,0,0,0.8,-40,8.7999982)"
       gradientUnits="userSpaceOnUse" />
    <radialGradient
       inkscape:collect="always"
       xlink:href="#linearGradient4193"
       id="radialGradient4235"
       cx="8"
       cy="41.5"
       fx="8"
       fy="41.5"
       r="2.5"
       gradientUnits="userSpaceOnUse"
       gradientTransform="matrix(-2,0,0,-0.79999993,24,77.199993)" />
    <linearGradient
       gradientTransform="matrix(1,0,0,0.8,8.1945801e-7,9.199999)"
       inkscape:collect="always"
       xlink:href="#linearGradient4172"
       id="linearGradient4178"
       x1="24"
       y1="46"
       x2="24"
       y2="41"
       gradientUnits="userSpaceOnUse" />
    <linearGradient
       inkscape:collect="always"
       id="linearGradient4172">
      <stop
         offset="0"
         id="stop4174"
         style="stop-color:#000000;stop-opacity:0" />
      <stop
         id="stop4180"
         offset="0.5"
         style="stop-color:#000000;stop-opacity:0.60000002" />
      <stop
         style="stop-color:#000000;stop-opacity:0;"
         offset="1"
         id="stop4176" />
    </linearGradient>
    <radialGradient
       inkscape:collect="always"
       xlink:href="#linearGradient4208"
       id="radialGradient4214"
       cx="24"
       cy="-4.5"
       fx="24"
       fy="-4.5"
       r="20"
       gradientTransform="matrix(1,0,0,0.7,8.7243652e-7,8.15)"
       gradientUnits="userSpaceOnUse" />
    <linearGradient
       inkscape:collect="always"
       id="linearGradient4208">
      <stop
         style="stop-color:#ffffff;stop-opacity:0.25098041"
         offset="0"
         id="stop4210" />
      <stop
         style="stop-color:#ffffff;stop-opacity:0"
         offset="1"
         id="stop4212" />
    </linearGradient>
    <linearGradient
       inkscape:collect="always"
       xlink:href="#linearGradient4354"
       id="linearGradient4360"
       x1="24"
       y1="1011"
       x2="24"
       y2="1048"
       gradientUnits="userSpaceOnUse" />
  </defs>
  <sodipodi:namedview
     id="base"
     pagecolor="#ffffff"
     bordercolor="#666666"
     borderopacity="1.0"
     inkscape:pageopacity="0.0"
     inkscape:pageshadow="2"
     inkscape:zoom="16"
     inkscape:cx="48.425881"
     inkscape:cy="23.165362"
     inkscape:document-units="px"
     inkscape:current-layer="layer5"
     showgrid="false"
     units="px"
     inkscape:window-width="3440"
     inkscape:window-height="1377"
     inkscape:window-x="0"
     inkscape:window-y="30"
     inkscape:window-maximized="1" />
  <metadata
     id="metadata7">
    <rdf:RDF>
      <cc:Work
         rdf:about="">
        <dc:format>image/svg+xml</dc:format>
        <dc:type
           rdf:resource="http://purl.org/dc/dcmitype/StillImage" />
        <dc:title />
      </cc:Work>
    </rdf:RDF>
  </metadata>
  <g
     inkscape:groupmode="layer"
     id="layer3"
     inkscape:label="Shadow">
    <rect
       style="fill:url(#linearGradient4178);fill-opacity:1;fill-rule:evenodd;stroke:none;stroke-width:1px;stroke-linecap:butt;stroke-linejoin:miter;stroke-opacity:1"
       id="rect3370"
       width="32"
       height="4.000001"
       x="8"
       y="42" />
    <rect
       style="fill:url(#radialGradient4235);fill-opacity:1;stroke:none"
       id="rect4227"
       width="5.000001"
       height="4.0000005"
       x="2.999999"
       y="42.000004" />
    <rect
       style="opacity:1;fill:url(#radialGradient4245);fill-opacity:1;stroke:none"
       id="rect4237"
       width="5.000001"
       height="4.000001"
       x="40"
       y="42" />
  </g>
  <g
     inkscape:label="Layer 1"
     inkscape:groupmode="layer"
     id="layer1"
     transform="translate(0,-1004.3621)"
     style="display:inline;opacity:1">
    <rect
       style="opacity:1;fill:#68b723;fill-opacity:1;stroke:none;stroke-width:1;stroke-miterlimit:4;stroke-dasharray:none;stroke-opacity:0"
       id="rect4136"
       width="40"
       height="40"
       x="4"
       y="1009.362"
       rx="3"
       ry="3" />
    <rect
       ry="2.5"
       rx="2.5"
       y="1009.862"
       x="4.5"
       height="39"
       width="39"
       id="rect4138"
       style="opacity:1;fill:none;fill-opacity:1;stroke:#000000;stroke-width:1;stroke-miterlimit:4;stroke-dasharray:none;stroke-opacity:0.33000001" />
    <rect
       ry="2"
       rx="2"
       y="1010.3621"
       x="5"
       height="38"
       width="38"
       id="rect4352"
       style="opacity:1;fill:url(#linearGradient4360);fill-opacity:1;stroke:none;stroke-width:1;stroke-miterlimit:4;stroke-dasharray:none;stroke-opacity:1" />
    <rect
       style="opacity:1;fill:none;fill-opacity:1;stroke:url(#linearGradient4150);stroke-width:1;stroke-miterlimit:4;stroke-dasharray:none;stroke-opacity:1"
       id="rect4148"
       width="37"
       height="37"
       x="5.5"
       y="1010.862"
       rx="1.5"
       ry="1.5" />
  </g>
  <g
     inkscape:groupmode="layer"
     id="layer5"
     inkscape:label="Icon"
     style="display:inline">
    <g
       transform="matrix(0.99932904,0,0,0.9803441,0.01610274,2.4717416)"
       id="g4210"
       style="font-style:normal;font-weight:normal;font-size:40px;line-height:125%;font-family:sans-serif;letter-spacing:0px;word-spacing:0px;opacity:0.5;fill:#000000;fill-opacity:1;stroke:none;stroke-width:1px;stroke-linecap:butt;stroke-linejoin:miter;stroke-opacity:1">
      <path
         inkscape:connector-curvature="0"
         id="path4212"
         style="font-size:17.5px;fill:#000000;fill-opacity:1"
         d="m 9.9906006,28.699707 3.5119624,-12.851562 1.350098,0 -3.477783,12.851562 -1.3842774,0 z" />
      <path
         inkscape:connector-curvature="0"
         id="path4214"
         style="font-style:normal;font-variant:normal;font-weight:bold;font-stretch:normal;font-family:sans-serif;-inkscape-font-specification:'sans-serif Bold';fill:#000000;fill-opacity:1"
         d="M 17.467407,28.87915 15.02356,15.8396 l 2.033691,0 2.486572,13.03955 -2.076416,0 z" />
      <path
         inkscape:connector-curvature="0"
         id="path4216"
         style="font-style:normal;font-variant:normal;font-weight:bold;font-stretch:normal;font-family:sans-serif;-inkscape-font-specification:'sans-serif Bold';fill:#000000;fill-opacity:1"
         d="m 20.885376,28.528809 0,-2.606202 2.469482,0 0,2.606202 -2.469482,0 z" />
      <path
         inkscape:connector-curvature="0"
         id="path4218"
         style="font-size:17.5px;fill:#000000;fill-opacity:1"
         d="m 24.551147,28.699707 3.511963,-12.851562 1.350098,0 -3.477783,12.851562 -1.384278,0 z" />
      <path
         inkscape:connector-curvature="0"
         id="path4220"
         style="font-size:17.5px;fill:#000000;fill-opacity:1"
         d="m 34.08728,32.1604 q -1.512451,0 -2.409668,-0.598144 -0.897216,-0.5896 -1.153564,-1.68335 l 1.546631,-0.222168 q 0.153808,0.640869 0.675049,0.982666 0.529785,0.350342 1.384277,0.350342 2.298584,0 2.298584,-2.69165 l 0,-1.486817 -0.01709,0 q -0.435791,0.888672 -1.196289,1.341553 -0.760498,0.444336 -1.777344,0.444336 -1.700439,0 -2.503662,-1.12793 -0.794678,-1.127929 -0.794678,-3.546142 0,-2.452393 0.854493,-3.614502 0.863037,-1.170655 2.614746,-1.170655 0.982666,0 1.700439,0.452881 0.726318,0.444336 1.119385,1.273194 l 0.01709,0 q 0,-0.256348 0.03418,-0.888672 0.03418,-0.632324 0.06836,-0.692139 l 1.461181,0 q -0.05127,0.461426 -0.05127,1.914063 l 0,7.06665 q 0,3.896484 -3.87085,3.896484 z m 2.341309,-8.254394 q 0,-1.12793 -0.307617,-1.939697 -0.307618,-0.820313 -0.871582,-1.247559 -0.55542,-0.435791 -1.264649,-0.435791 -1.179199,0 -1.717529,0.854492 -0.53833,0.854492 -0.53833,2.768555 0,1.896973 0.50415,2.72583 0.504151,0.828857 1.726074,0.828857 0.726319,0 1.290284,-0.427246 0.563964,-0.427246 0.871582,-1.221924 0.307617,-0.803222 0.307617,-1.905517 z" />
    </g>
    <g
       style="font-style:normal;font-weight:normal;font-size:40px;line-height:125%;font-family:sans-serif;letter-spacing:0px;word-spacing:0px;fill:#000000;fill-opacity:1;stroke:none;stroke-width:1px;stroke-linecap:butt;stroke-linejoin:miter;stroke-opacity:1"
       id="text4185"
       transform="matrix(0.99932904,0,0,0.9803441,0.01610274,1.4717416)">
      <path
         d="m 9.9906006,28.699707 3.5119624,-12.851562 1.350098,0 -3.477783,12.851562 -1.3842774,0 z"
         style="font-size:17.5px"
         id="path4200"
         inkscape:connector-curvature="0" />
      <path
         d="M 17.467407,28.87915 15.02356,15.8396 l 2.033691,0 2.486572,13.03955 -2.076416,0 z"
         style="font-style:normal;font-variant:normal;font-weight:bold;font-stretch:normal;font-family:sans-serif;-inkscape-font-specification:'sans-serif Bold';fill:#ffffff;fill-opacity:1"
         id="path4202"
         inkscape:connector-curvature="0" />
      <path
         d="m 20.885376,28.528809 0,-2.606202 2.469482,0 0,2.606202 -2.469482,0 z"
         style="font-style:normal;font-variant:normal;font-weight:bold;font-stretch:normal;font-family:sans-serif;-inkscape-font-specification:'sans-serif Bold';fill:#ffffff;fill-opacity:1"
         id="path4204"
         inkscape:connector-curvature="0" />
      <path
         d="m 24.551147,28.699707 3.511963,-12.851562 1.350098,0 -3.477783,12.851562 -1.384278,0 z"
         style="font-size:17.5px"
         id="path4206"
         inkscape:connector-curvature="0" />
      <path
         d="m 34.08728,32.1604 q -1.512451,0 -2.409668,-0.598144 -0.897216,-0.5896 -1.153564,-1.68335 l 1.546631,-0.222168 q 0.153808,0.640869 0.675049,0.982666 0.529785,0.350342 1.384277,0.350342 2.298584,0 2.298584,-2.69165 l 0,-1.486817 -0.01709,0 q -0.435791,0.888672 -1.196289,1.341553 -0.760498,0.444336 -1.777344,0.444336 -1.700439,0 -2.503662,-1.12793 -0.794678,-1.127929 -0.794678,-3.546142 0,-2.452393 0.854493,-3.614502 0.863037,-1.170655 2.614746,-1.170655 0.982666,0 1.700439,0.452881 0.726318,0.444336 1.119385,1.273194 l 0.01709,0 q 0,-0.256348 0.03418,-0.888672 0.03418,-0.632324 0.06836,-0.692139 l 1.461181,0 q -0.05127,0.461426 -0.05127,1.914063 l 0,7.06665 q 0,3.896484 -3.87085,3.896484 z m 2.341309,-8.254394 q 0,-1.12793 -0.307617,-1.939697 -0.307618,-0.820313 -0.871582,-1.247559 -0.55542,-0.435791 -1.264649,-0.435791 -1.179199,0 -1.717529,0.854492 -0.53833,0.854492 -0.53833,2.768555 0,1.896973 0.50415,2.72583 0.504151,0.828857 1.726074,0.828857 0.726319,0 1.290284,-0.427246 0.563964,-0.427246 0.871582,-1.221924 0.307617,-0.803222 0.307617,-1.905517 z"
         style="font-size:17.5px"
         id="path4208"
         inkscape:connector-curvature="0" />
    </g>
  </g>
  <g
     inkscape:groupmode="layer"
     id="layer4"
     inkscape:label="Spot"
     sodipodi:insensitive="true"
     style="display:none">
    <rect
       style="fill:url(#radialGradient4214);fill-opacity:1;fill-rule:evenodd;stroke:none;stroke-width:1px;stroke-linecap:butt;stroke-linejoin:miter;stroke-opacity:1"
       id="rect4190"
       width="40"
       height="14"
       x="4"
       y="4.999999"
       ry="2" />
  </g>
</svg>
