<?xml version="1.0" encoding="UTF-8" standalone="no"?>
<!-- Created with Inkscape (http://www.inkscape.org/) -->

<svg
   xmlns:dc="http://purl.org/dc/elements/1.1/"
   xmlns:cc="http://creativecommons.org/ns#"
   xmlns:rdf="http://www.w3.org/1999/02/22-rdf-syntax-ns#"
   xmlns:svg="http://www.w3.org/2000/svg"
   xmlns="http://www.w3.org/2000/svg"
   xmlns:xlink="http://www.w3.org/1999/xlink"
   xmlns:sodipodi="http://sodipodi.sourceforge.net/DTD/sodipodi-0.dtd"
   xmlns:inkscape="http://www.inkscape.org/namespaces/inkscape"
   width="32"
   height="32"
   viewBox="0 0 32 32.000001"
   id="svg4166"
   version="1.1"
   inkscape:version="0.91 r13725"
   sodipodi:docname="artemanufrij.regextester.svg">
  <defs
     id="defs4168">
    <linearGradient
       inkscape:collect="always"
       id="linearGradient4191">
      <stop
         style="stop-color:#000000;stop-opacity:0"
         offset="0"
         id="stop4193" />
      <stop
         style="stop-color:#000000;stop-opacity:0.03921569"
         offset="1"
         id="stop4195" />
    </linearGradient>
    <linearGradient
       inkscape:collect="always"
       id="linearGradient4202">
      <stop
         offset="0"
         id="stop4204"
         style="stop-color:#ffffff;stop-opacity:0.1" />
      <stop
         id="stop4187"
         offset="0.2"
         style="stop-color:#ffffff;stop-opacity:0.05" />
      <stop
         id="stop4185"
         offset="0.80000001"
         style="stop-color:#ffffff;stop-opacity:0.05" />
      <stop
         offset="1"
         id="stop4206"
         style="stop-color:#ffffff;stop-opacity:0.30000001" />
    </linearGradient>
    <filter
       style="color-interpolation-filters:sRGB;"
       inkscape:label="Drop Shadow"
       id="filter4190">
      <feFlood
         flood-opacity="0.498039"
         flood-color="rgb(0,0,0)"
         result="flood"
         id="feFlood4192" />
      <feComposite
         in="flood"
         in2="SourceGraphic"
         operator="in"
         result="composite1"
         id="feComposite4194" />
      <feGaussianBlur
         in="composite1"
         stdDeviation="1"
         result="blur"
         id="feGaussianBlur4196" />
      <feOffset
         dx="1.38778e-16"
         dy="1"
         result="offset"
         id="feOffset4198" />
      <feComposite
         in="SourceGraphic"
         in2="offset"
         operator="over"
         result="composite2"
         id="feComposite4200" />
    </filter>
    <linearGradient
       inkscape:collect="always"
       xlink:href="#linearGradient4202"
       id="linearGradient4208"
       x1="16"
       y1="1049"
       x2="16"
       y2="1024"
       gradientUnits="userSpaceOnUse" />
    <filter
       style="color-interpolation-filters:sRGB;"
       inkscape:label="Drop Shadow"
       id="filter4181">
      <feFlood
         flood-opacity="0.498039"
         flood-color="rgb(0,0,0)"
         result="flood"
         id="feFlood4183" />
      <feComposite
         in="flood"
         in2="SourceGraphic"
         operator="in"
         result="composite1"
         id="feComposite4185" />
      <feGaussianBlur
         in="composite1"
         stdDeviation="1"
         result="blur"
         id="feGaussianBlur4187" />
      <feOffset
         dx="1.38778e-16"
         dy="1"
         result="offset"
         id="feOffset4189" />
      <feComposite
         in="SourceGraphic"
         in2="offset"
         operator="over"
         result="composite2"
         id="feComposite4191" />
    </filter>
    <radialGradient
       inkscape:collect="always"
       xlink:href="#linearGradient4173"
       id="radialGradient4179"
       cx="16"
       cy="-2.8"
       fx="16"
       fy="-2.8"
       r="14"
       gradientTransform="matrix(0.92857143,0,0,0.71428572,1.14286,5)"
       gradientUnits="userSpaceOnUse" />
    <linearGradient
       inkscape:collect="always"
       id="linearGradient4173">
      <stop
         style="stop-color:#ffffff;stop-opacity:0.26666668"
         offset="0"
         id="stop4175" />
      <stop
         style="stop-color:#ffffff;stop-opacity:0"
         offset="1"
         id="stop4177" />
    </linearGradient>
    <linearGradient
       inkscape:collect="always"
       xlink:href="#linearGradient4191"
       id="linearGradient4197"
       x1="16"
       y1="1024"
       x2="16"
       y2="1049"
       gradientUnits="userSpaceOnUse"
       gradientTransform="matrix(1.0833333,0,0,1.0833333,-1.3333333,-86.363496)" />
  </defs>
  <sodipodi:namedview
     id="base"
     pagecolor="#ffffff"
     bordercolor="#666666"
     borderopacity="1.0"
     inkscape:pageopacity="0.0"
     inkscape:pageshadow="2"
     inkscape:zoom="22.627417"
     inkscape:cx="16.422077"
     inkscape:cy="19.608335"
     inkscape:document-units="px"
     inkscape:current-layer="layer2"
     showgrid="false"
     units="px"
     inkscape:window-width="1640"
     inkscape:window-height="1241"
     inkscape:window-x="891"
     inkscape:window-y="98"
     inkscape:window-maximized="0" />
  <metadata
     id="metadata4171">
    <rdf:RDF>
      <cc:Work
         rdf:about="">
        <dc:format>image/svg+xml</dc:format>
        <dc:type
           rdf:resource="http://purl.org/dc/dcmitype/StillImage" />
        <dc:title />
      </cc:Work>
    </rdf:RDF>
  </metadata>
  <g
     inkscape:label="Layer 1"
     inkscape:groupmode="layer"
     id="layer1"
     transform="translate(0,-1020.3622)"
     style="opacity:1">
    <rect
       style="opacity:1;fill:#68b723;fill-opacity:1;stroke:none;stroke-width:1;stroke-miterlimit:4;stroke-dasharray:none;stroke-opacity:0"
       id="rect4716"
       width="28"
       height="28"
       x="2"
       y="1022.3622"
       rx="3"
       ry="3" />
    <rect
       ry="2.5"
       rx="2.5"
       y="1022.8622"
       x="2.5"
       height="27"
       width="27"
       id="rect4718"
       style="opacity:1;fill:none;fill-opacity:1;stroke:#000000;stroke-width:1;stroke-miterlimit:4;stroke-dasharray:none;stroke-opacity:0.33000004" />
    <rect
       style="opacity:1;fill:none;fill-opacity:1;stroke:url(#linearGradient4208);stroke-width:1;stroke-miterlimit:4;stroke-dasharray:none;stroke-opacity:1"
       id="rect4728"
       width="25"
       height="25"
       x="3.5"
       y="1023.8622"
       rx="1.5"
       ry="1.5" />
    <rect
       ry="2"
       rx="2"
       y="1023.3622"
       x="3"
       height="26"
       width="26"
       id="rect4189"
       style="opacity:1;fill:url(#linearGradient4197);fill-opacity:1;stroke:none;stroke-width:1;stroke-miterlimit:4;stroke-dasharray:none;stroke-opacity:1" />
  </g>
  <g
     inkscape:groupmode="layer"
     id="layer2"
     inkscape:label="Icon"
     style="display:inline;opacity:1">
    <g
       transform="matrix(0.99932921,0,0,1.0293613,0.01073409,0.53021938)"
       id="g4199"
       style="font-style:normal;font-weight:normal;font-size:40px;line-height:125%;font-family:sans-serif;letter-spacing:0px;word-spacing:0px;fill:#000000;fill-opacity:1;stroke:none;stroke-width:1px;stroke-linecap:butt;stroke-linejoin:miter;stroke-opacity:1;opacity:0.5">
      <path
         inkscape:connector-curvature="0"
         id="path4201"
         style="font-size:12.5px;fill:#000000;fill-opacity:1"
         d="m 5.9932861,19.356934 2.508545,-9.179688 0.9643554,0 -2.4841308,9.179688 -0.9887696,0 z" />
      <path
         inkscape:connector-curvature="0"
         id="path4203"
         style="font-style:normal;font-variant:normal;font-weight:bold;font-stretch:normal;font-family:sans-serif;-inkscape-font-specification:'sans-serif Bold';fill:#000000;fill-opacity:1"
         d="m 11.333862,19.485107 -1.7456052,-9.313964 1.4526372,0 1.776123,9.313964 -1.483155,0 z" />
      <path
         inkscape:connector-curvature="0"
         id="path4205"
         style="font-style:normal;font-variant:normal;font-weight:bold;font-stretch:normal;font-family:sans-serif;-inkscape-font-specification:'sans-serif Bold';fill:#000000;fill-opacity:1"
         d="m 13.775269,19.234863 0,-1.861572 1.763916,0 0,1.861572 -1.763916,0 z" />
      <path
         inkscape:connector-curvature="0"
         id="path4207"
         style="font-size:12.5px;fill:#000000;fill-opacity:1"
         d="m 16.393677,19.356934 2.508545,-9.179688 0.964355,0 -2.484131,9.179688 -0.988769,0 z" />
      <path
         inkscape:connector-curvature="0"
         id="path4209"
         style="font-size:12.5px;fill:#000000;fill-opacity:1"
         d="m 23.2052,21.828857 q -1.080322,0 -1.721191,-0.427246 -0.640869,-0.421142 -0.823975,-1.202392 l 1.104737,-0.158692 q 0.109863,0.457764 0.482177,0.701905 0.378418,0.250244 0.98877,0.250244 1.641845,0 1.641845,-1.922608 l 0,-1.062011 -0.01221,0 q -0.311279,0.634765 -0.854492,0.958252 -0.543213,0.317382 -1.269531,0.317382 -1.2146,0 -1.78833,-0.805664 -0.567627,-0.805664 -0.567627,-2.532959 0,-1.751709 0.610352,-2.581787 Q 21.61218,12.5271 22.8634,12.5271 q 0.701905,0 1.2146,0.323486 0.518799,0.317383 0.79956,0.909424 l 0.01221,0 q 0,-0.183106 0.02441,-0.634766 0.02441,-0.45166 0.04883,-0.494385 l 1.043701,0 q -0.03662,0.32959 -0.03662,1.367188 l 0,5.047607 q 0,2.783203 -2.764893,2.783203 z m 1.672363,-5.895996 q 0,-0.805664 -0.219726,-1.385498 -0.219727,-0.585937 -0.622559,-0.891113 -0.396728,-0.311279 -0.90332,-0.311279 -0.842285,0 -1.226807,0.610351 -0.384521,0.610352 -0.384521,1.977539 0,1.354981 0.360107,1.947022 0.360108,0.592041 1.23291,0.592041 0.518799,0 0.921631,-0.305176 0.402832,-0.305176 0.622559,-0.872803 0.219726,-0.57373 0.219726,-1.361084 z" />
    </g>
    <g
       style="font-style:normal;font-weight:normal;font-size:40px;line-height:125%;font-family:sans-serif;letter-spacing:0px;word-spacing:0px;fill:#000000;fill-opacity:1;stroke:none;stroke-width:1px;stroke-linecap:butt;stroke-linejoin:miter;stroke-opacity:1"
       id="text4174"
       transform="matrix(0.99932921,0,0,1.0293613,0.01073409,-0.4697808)">
      <path
         d="m 5.9932861,19.356934 2.508545,-9.179688 0.9643554,0 -2.4841308,9.179688 -0.9887696,0 z"
         style="font-size:12.5px"
         id="path4189"
         inkscape:connector-curvature="0" />
      <path
         d="m 11.333862,19.485107 -1.7456052,-9.313964 1.4526372,0 1.776123,9.313964 -1.483155,0 z"
         style="font-style:normal;font-variant:normal;font-weight:bold;font-stretch:normal;font-family:sans-serif;-inkscape-font-specification:'sans-serif Bold';fill:#ffffff;fill-opacity:1"
         id="path4191"
         inkscape:connector-curvature="0" />
      <path
         d="m 13.775269,19.234863 0,-1.861572 1.763916,0 0,1.861572 -1.763916,0 z"
         style="font-style:normal;font-variant:normal;font-weight:bold;font-stretch:normal;font-family:sans-serif;-inkscape-font-specification:'sans-serif Bold';fill:#ffffff;fill-opacity:1"
         id="path4193"
         inkscape:connector-curvature="0" />
      <path
         d="m 16.393677,19.356934 2.508545,-9.179688 0.964355,0 -2.484131,9.179688 -0.988769,0 z"
         style="font-size:12.5px"
         id="path4195"
         inkscape:connector-curvature="0" />
      <path
         d="m 23.2052,21.828857 q -1.080322,0 -1.721191,-0.427246 -0.640869,-0.421142 -0.823975,-1.202392 l 1.104737,-0.158692 q 0.109863,0.457764 0.482177,0.701905 0.378418,0.250244 0.98877,0.250244 1.641845,0 1.641845,-1.922608 l 0,-1.062011 -0.01221,0 q -0.311279,0.634765 -0.854492,0.958252 -0.543213,0.317382 -1.269531,0.317382 -1.2146,0 -1.78833,-0.805664 -0.567627,-0.805664 -0.567627,-2.532959 0,-1.751709 0.610352,-2.581787 Q 21.61218,12.5271 22.8634,12.5271 q 0.701905,0 1.2146,0.323486 0.518799,0.317383 0.79956,0.909424 l 0.01221,0 q 0,-0.183106 0.02441,-0.634766 0.02441,-0.45166 0.04883,-0.494385 l 1.043701,0 q -0.03662,0.32959 -0.03662,1.367188 l 0,5.047607 q 0,2.783203 -2.764893,2.783203 z m 1.672363,-5.895996 q 0,-0.805664 -0.219726,-1.385498 -0.219727,-0.585937 -0.622559,-0.891113 -0.396728,-0.311279 -0.90332,-0.311279 -0.842285,0 -1.226807,0.610351 -0.384521,0.610352 -0.384521,1.977539 0,1.354981 0.360107,1.947022 0.360108,0.592041 1.23291,0.592041 0.518799,0 0.921631,-0.305176 0.402832,-0.305176 0.622559,-0.872803 0.219726,-0.57373 0.219726,-1.361084 z"
         style="font-size:12.5px"
         id="path4197"
         inkscape:connector-curvature="0" />
    </g>
  </g>
  <g
     inkscape:groupmode="layer"
     id="layer3"
     inkscape:label="Spot"
     style="display:none">
    <rect
       style="fill:url(#radialGradient4179);fill-opacity:1;fill-rule:evenodd;stroke:none;stroke-width:1px;stroke-linecap:butt;stroke-linejoin:miter;stroke-opacity:1"
       id="rect3371"
       width="26"
       height="10"
       x="3"
       y="3"
       rx="2"
       ry="2" />
  </g>
</svg>
